<svg id="Layer_1" enable-background="new 0 0 512 512" height="512" viewBox="0 0 512 512" width="512" xmlns="http://www.w3.org/2000/svg"><g id="Layer_2_00000100377928600447027650000014086177657009069482_"><g id="Social_Icon"><g id="UserPlus"><path d="m225.2 292.1c33 0 63.5-9.3 87.9-25.1 18.9-12.1 43.5-10.1 60.1 5 46.1 41.8 72.3 101.1 72.2 163.4v26.7c0 27.6-22.4 49.9-50 49.9h-340.4c-27.6 0-50-22.3-50-49.9v-26.7c-.2-62.2 26-121.6 72.1-163.3 16.6-15.1 41.3-17.1 60.1-5 24.5 15.7 55 25 88 25z" fill="#07c"/><circle cx="225.2" cy="123.8" fill="#41a5ee" r="123.8"/><path d="m488.1 194.4h-38.2v-38.2c0-10.4-8.4-18.9-18.9-18.9-10.4 0-18.9 8.5-18.9 18.9v38.2h-38.3c-10.4 0-18.8 8.5-18.8 18.9 0 10.4 8.5 18.9 18.9 18.9h38.2v38.2c0 10.4 8.4 18.9 18.9 18.9 10.4 0 18.9-8.5 18.9-18.9v-38.2h38.2c10.4 0 18.9-8.5 18.9-18.9 0-10.4-8.5-18.9-18.9-18.9z" fill="#07c"/></g></g></g></svg>