<svg id="Capa_1" enable-background="new 0 0 512 512" height="512" viewBox="0 0 512 512" width="512" xmlns="http://www.w3.org/2000/svg"><g><g><path d="m428.748 107.402c-4.143 0-7.5-3.357-7.5-7.5v-45.573h-81.996c-4.143 0-7.5-3.357-7.5-7.5s3.357-7.5 7.5-7.5h89.496c4.143 0 7.5 3.357 7.5 7.5v53.073c0 4.143-3.357 7.5-7.5 7.5z" fill="#fe93bb"/></g><path d="m454.864 277.749c-2.93-2.928-7.678-2.928-10.607 0l-8.009 8.009v-70.978c0-4.143-3.357-7.5-7.5-7.5s-7.5 3.357-7.5 7.5v70.979l-8.011-8.01c-2.928-2.928-7.677-2.929-10.606.001-2.929 2.929-2.929 7.678.001 10.606l20.813 20.812c1.464 1.464 3.384 2.196 5.303 2.196s3.839-.732 5.304-2.196l20.812-20.812c2.929-2.929 2.929-7.677 0-10.607z" fill="#fe93bb"/><g><path d="m83.252 107.402c-4.143 0-7.5-3.357-7.5-7.5v-53.073c0-4.143 3.357-7.5 7.5-7.5h89.496c4.143 0 7.5 3.357 7.5 7.5s-3.357 7.5-7.5 7.5h-81.996v45.573c0 4.143-3.357 7.5-7.5 7.5z" fill="#fe93bb"/></g><path d="m109.369 277.75c-2.929-2.929-7.678-2.93-10.606-.001l-8.011 8.01v-70.979c0-4.143-3.357-7.5-7.5-7.5s-7.5 3.357-7.5 7.5v70.978l-8.009-8.009c-2.93-2.928-7.678-2.928-10.607 0-2.929 2.93-2.929 7.678 0 10.607l20.812 20.812c1.465 1.464 3.384 2.196 5.304 2.196 1.919 0 3.839-.732 5.303-2.196l20.813-20.812c2.93-2.928 2.93-7.677.001-10.606z" fill="#fe93bb"/><g><path d="m297.626 93.659h-83.252c-22.99 0-41.626 18.637-41.626 41.626v31.626c0 5.523 4.477 10 10 10h15.801l7.5-6.578 7.5 6.578h84.902l7.5-6.578 7.5 6.578h15.801c5.523 0 10-4.477 10-10v-31.626c0-22.99-18.637-41.626-41.626-41.626z" fill="#62dbfb"/><path d="m297.626 93.659h-33.301c22.989 0 41.626 18.637 41.626 41.626v35.048l7.5 6.578h15.801c5.523 0 10-4.477 10-10v-31.626c0-22.99-18.637-41.626-41.626-41.626z" fill="#01d0fb"/><g><circle cx="256" cy="46.829" fill="#fed2a4" r="46.829"/></g><g><path d="m277.027 4.989c3.185 6.324 4.989 13.463 4.989 21.027 0 25.863-20.966 46.829-46.829 46.829-7.564 0-14.703-1.804-21.027-4.989 7.705 15.3 23.541 25.802 41.84 25.802 25.863 0 46.829-20.966 46.829-46.829 0-18.299-10.502-34.135-25.802-41.84z" fill="#ffbd86"/></g></g><g><path d="m470.374 428.748h-83.252c-22.99 0-41.626 18.637-41.626 41.626v31.626c0 5.523 4.477 10 10 10h15.802l7.5-6.795 7.5 6.795h84.902l7.5-6.795 7.5 6.795h15.8c5.523 0 10-4.477 10-10v-31.626c0-22.989-18.637-41.626-41.626-41.626z" fill="#ffd15b"/><path d="m470.374 428.748h-33.301c22.989 0 41.626 18.637 41.626 41.626v34.831l7.5 6.795h15.801c5.523 0 10-4.477 10-10v-31.626c0-22.989-18.637-41.626-41.626-41.626z" fill="#ffc344"/><g><circle cx="428.748" cy="381.919" fill="#fed2a4" r="46.829"/></g><g><path d="m449.775 340.079c3.185 6.324 4.989 13.463 4.989 21.027 0 25.863-20.966 46.829-46.829 46.829-7.564 0-14.703-1.804-21.027-4.989 7.705 15.3 23.541 25.802 41.84 25.802 25.863 0 46.829-20.966 46.829-46.829 0-18.299-10.502-34.136-25.802-41.84z" fill="#ffbd86"/></g></g><g><path d="m124.878 428.748h-83.252c-22.989 0-41.626 18.637-41.626 41.626v31.626c0 5.523 4.477 10 10 10h15.801l7.966-5.481 7.033 5.481h84.903l7.966-5.481 7.033 5.481h15.802c5.523 0 10-4.477 10-10v-31.626c0-22.989-18.637-41.626-41.626-41.626z" fill="#5f99d7"/><path d="m124.878 428.748h-33.301c22.989 0 41.626 18.637 41.626 41.626v36.466l.467-.321 7.033 5.481h15.802c5.523 0 10-4.477 10-10v-31.626c-.001-22.989-18.638-41.626-41.627-41.626z" fill="#3c87d0"/><g><circle cx="83.252" cy="381.919" fill="#fed2a4" r="46.829"/></g><g><path d="m104.279 340.079c3.185 6.324 4.989 13.463 4.989 21.027 0 25.863-20.966 46.829-46.829 46.829-7.564 0-14.703-1.804-21.027-4.989 7.705 15.3 23.541 25.802 41.84 25.802 25.863 0 46.829-20.966 46.829-46.829 0-18.299-10.502-34.136-25.802-41.84z" fill="#ffbd86"/></g></g><g><g><path d="m469.333 224.781h-81.171c-3.448 0-6.244-2.796-6.244-6.244v-112.39c0-3.448 2.795-6.244 6.244-6.244h81.171c3.448 0 6.244 2.795 6.244 6.244v112.39c0 3.448-2.795 6.244-6.244 6.244z" fill="#dff6fd"/></g><g><path d="m469.333 99.902h-31.22c3.448 0 6.244 2.795 6.244 6.244v112.39c0 3.448-2.796 6.244-6.244 6.244h31.22c3.448 0 6.244-2.795 6.244-6.244v-112.39c0-3.448-2.795-6.244-6.244-6.244z" fill="#c8effe"/></g></g><g><g><path d="m123.837 224.781h-81.17c-3.448 0-6.244-2.796-6.244-6.244v-112.39c0-3.448 2.795-6.244 6.244-6.244h81.171c3.448 0 6.244 2.795 6.244 6.244v112.39c-.001 3.448-2.796 6.244-6.245 6.244z" fill="#dff6fd"/></g><g><path d="m123.837 99.902h-31.22c3.448 0 6.244 2.795 6.244 6.244v112.39c0 3.448-2.795 6.244-6.244 6.244h31.22c3.448 0 6.244-2.795 6.244-6.244v-112.39c0-3.448-2.795-6.244-6.244-6.244z" fill="#c8effe"/></g></g><g><g><circle cx="256" cy="311.223" fill="#dff6fd" r="92.686"/></g><g><path d="m308.071 234.539c10.098 14.842 16.002 32.767 16.002 52.071 0 51.189-41.497 92.686-92.686 92.686-19.305 0-37.229-5.904-52.071-16.002 16.678 24.513 44.799 40.615 76.684 40.615 51.189 0 92.686-41.497 92.686-92.686 0-31.885-16.101-60.006-40.615-76.684z" fill="#c8effe"/></g><g><g><path d="m284.425 279.773-38.724 38.724-16.014-16.014c-6.096-6.096-15.98-6.096-22.076 0-6.096 6.096-6.096 15.98 0 22.076l27.051 27.051c6.096 6.096 15.98 6.096 22.076 0l49.762-49.762c6.096-6.096 6.096-15.98 0-22.076-6.095-6.095-15.979-6.095-22.075.001z" fill="#6cf5c2"/></g></g></g><g fill="#01c0fa"><path d="m305.951 138.191c-4.143 0-7.5 3.357-7.5 7.5v31.219h15v-31.219c0-4.142-3.357-7.5-7.5-7.5z"/><path d="m206.049 138.191c-4.143 0-7.5 3.357-7.5 7.5v31.219h15v-31.219c0-4.142-3.358-7.5-7.5-7.5z"/></g><g fill="#feb237"><path d="m478.699 473.28c-4.143 0-7.5 3.357-7.5 7.5v31.22h15v-31.22c0-4.142-3.357-7.5-7.5-7.5z"/><path d="m378.797 473.28c-4.143 0-7.5 3.357-7.5 7.5v31.22h15v-31.22c0-4.142-3.358-7.5-7.5-7.5z"/></g><g fill="#0078c8"><path d="m133.203 473.28c-4.143 0-7.5 3.357-7.5 7.5v31.22h15v-31.22c0-4.142-3.357-7.5-7.5-7.5z"/><path d="m33.301 473.28c-4.143 0-7.5 3.357-7.5 7.5v31.22h15v-31.22c0-4.142-3.358-7.5-7.5-7.5z"/></g><g><path d="m444.357 138.622h-31.219c-4.143 0-7.5-3.357-7.5-7.5s3.357-7.5 7.5-7.5h31.219c4.143 0 7.5 3.357 7.5 7.5s-3.357 7.5-7.5 7.5z" fill="#5f99d7"/></g><g><path d="m444.357 169.842h-31.219c-4.143 0-7.5-3.357-7.5-7.5s3.357-7.5 7.5-7.5h31.219c4.143 0 7.5 3.357 7.5 7.5s-3.357 7.5-7.5 7.5z" fill="#5f99d7"/></g><g><path d="m428.748 201.061h-15.609c-4.143 0-7.5-3.357-7.5-7.5s3.357-7.5 7.5-7.5h15.609c4.143 0 7.5 3.357 7.5 7.5s-3.357 7.5-7.5 7.5z" fill="#5f99d7"/></g><g><path d="m98.861 138.622h-31.218c-4.143 0-7.5-3.357-7.5-7.5s3.357-7.5 7.5-7.5h31.219c4.143 0 7.5 3.357 7.5 7.5-.001 4.143-3.358 7.5-7.501 7.5z" fill="#5f99d7"/></g><g><path d="m98.861 169.842h-31.218c-4.143 0-7.5-3.357-7.5-7.5s3.357-7.5 7.5-7.5h31.219c4.143 0 7.5 3.357 7.5 7.5s-3.358 7.5-7.501 7.5z" fill="#5f99d7"/></g><g><path d="m83.252 201.061h-15.609c-4.143 0-7.5-3.357-7.5-7.5s3.357-7.5 7.5-7.5h15.609c4.143 0 7.5 3.357 7.5 7.5s-3.357 7.5-7.5 7.5z" fill="#5f99d7"/></g></g></svg>